{
    "asset" : {
        "copyright" : "PENCILZ",
        "generator" : "Khronos glTF Blender I/O v1.8.19",
        "version" : "2.0"
    },
    "scene" : 0,
    "scenes" : [
        {
            "name" : "Scene",
            "nodes" : [
                0,
                1,
                2,
                3,
                4
            ]
        }
    ],
    "nodes" : [
        {
            "mesh" : 0,
            "name" : "floor",
            "rotation" : [
                0,
                -0.7071068286895752,
                0,
                0.7071068286895752
            ],
            "scale" : [
                1.5,
                1,
                1.5
            ],
            "translation" : [
                -0.001613512635231018,
                -1.2499998807907104,
                0.0016134977340698242
            ]
        },
        {
            "mesh" : 1,
            "name" : "ceiling",
            "rotation" : [
                0.7071068286895752,
                0,
                -0.7071068286895752,
                -3.090862321641907e-08
            ],
            "translation" : [
                -0.001613512635231018,
                1.25,
                0.0016134977340698242
            ]
        },
        {
            "mesh" : 2,
            "name" : "right",
            "rotation" : [
                0.5,
                -0.5,
                0.5,
                0.4999999701976776
            ],
            "scale" : [
                1,
                1,
                1.6660000085830688
            ],
            "translation" : [
                0.7483865022659302,
                0,
                0.001613527536392212
            ]
        },
        {
            "mesh" : 3,
            "name" : "left",
            "rotation" : [
                -0.5,
                -0.5,
                -0.5,
                0.4999999701976776
            ],
            "scale" : [
                1,
                1,
                1.6660000085830688
            ],
            "translation" : [
                -0.7516134977340698,
                4.649162292480469e-06,
                0.0016134679317474365
            ]
        },
        {
            "mesh" : 4,
            "name" : "back",
            "rotation" : [
                0.7071068286895752,
                0,
                0,
                0.7071068286895752
            ],
            "scale" : [
                1,
                1,
                1.6660000085830688
            ],
            "translation" : [
                -0.0016134828329086304,
                0,
                -0.7483865022659302
            ]
        }
    ],
    "materials" : [
        {
            "doubleSided" : true,
            "name" : "floor_mtl",
            "pbrMetallicRoughness" : {
                "baseColorFactor" : [
                    0.20000000298023224,
                    0.5999979972839355,
                    0.799781084060669,
                    1
                ],
                "metallicFactor" : 0
            }
        },
        {
            "doubleSided" : true,
            "name" : "ceiling_mtl",
            "pbrMetallicRoughness" : {
                "baseColorFactor" : [
                    0.5,
                    1,
                    0.20000000298023224,
                    1
                ],
                "metallicFactor" : 0
            }
        },
        {
            "doubleSided" : true,
            "name" : "right_mtl",
            "pbrMetallicRoughness" : {
                "baseColorFactor" : [
                    0.8000000715255737,
                    0.30000001192092896,
                    0.30000001192092896,
                    1
                ],
                "metallicFactor" : 0
            }
        },
        {
            "doubleSided" : true,
            "name" : "left_mtl",
            "pbrMetallicRoughness" : {
                "baseColorFactor" : [
                    0.5,
                    0.10000000149011612,
                    0.3499999940395355,
                    1
                ],
                "metallicFactor" : 0
            }
        },
        {
            "doubleSided" : true,
            "name" : "back_mtl",
            "pbrMetallicRoughness" : {
                "baseColorFactor" : [
                    0.7230541706085205,
                    0.7230547070503235,
                    0.7230551838874817,
                    1
                ],
                "metallicFactor" : 0
            }
        }
    ],
    "meshes" : [
        {
            "name" : "floor_plane",
            "primitives" : [
                {
                    "attributes" : {
                        "POSITION" : 0,
                        "NORMAL" : 1,
                        "TEXCOORD_0" : 2
                    },
                    "indices" : 3,
                    "material" : 0
                }
            ]
        },
        {
            "name" : "ceiling_plane",
            "primitives" : [
                {
                    "attributes" : {
                        "POSITION" : 4,
                        "NORMAL" : 5,
                        "TEXCOORD_0" : 6
                    },
                    "indices" : 3,
                    "material" : 1
                }
            ]
        },
        {
            "name" : "right_plane",
            "primitives" : [
                {
                    "attributes" : {
                        "POSITION" : 7,
                        "NORMAL" : 8,
                        "TEXCOORD_0" : 9
                    },
                    "indices" : 3,
                    "material" : 2
                }
            ]
        },
        {
            "name" : "left_plane",
            "primitives" : [
                {
                    "attributes" : {
                        "POSITION" : 10,
                        "NORMAL" : 11,
                        "TEXCOORD_0" : 12
                    },
                    "indices" : 3,
                    "material" : 3
                }
            ]
        },
        {
            "name" : "back_plane",
            "primitives" : [
                {
                    "attributes" : {
                        "POSITION" : 13,
                        "NORMAL" : 14,
                        "TEXCOORD_0" : 15
                    },
                    "indices" : 3,
                    "material" : 4
                }
            ]
        }
    ],
    "accessors" : [
        {
            "bufferView" : 0,
            "componentType" : 5126,
            "count" : 4,
            "max" : [
                0.5,
                0,
                0.5
            ],
            "min" : [
                -0.5,
                0,
                -0.5
            ],
            "type" : "VEC3"
        },
        {
            "bufferView" : 1,
            "componentType" : 5126,
            "count" : 4,
            "type" : "VEC3"
        },
        {
            "bufferView" : 2,
            "componentType" : 5126,
            "count" : 4,
            "type" : "VEC2"
        },
        {
            "bufferView" : 3,
            "componentType" : 5123,
            "count" : 6,
            "type" : "SCALAR"
        },
        {
            "bufferView" : 4,
            "componentType" : 5126,
            "count" : 4,
            "max" : [
                0.75,
                0,
                0.75
            ],
            "min" : [
                -0.75,
                0,
                -0.75
            ],
            "type" : "VEC3"
        },
        {
            "bufferView" : 5,
            "componentType" : 5126,
            "count" : 4,
            "type" : "VEC3"
        },
        {
            "bufferView" : 6,
            "componentType" : 5126,
            "count" : 4,
            "type" : "VEC2"
        },
        {
            "bufferView" : 7,
            "componentType" : 5126,
            "count" : 4,
            "max" : [
                0.75,
                0,
                0.75
            ],
            "min" : [
                -0.75,
                0,
                -0.75
            ],
            "type" : "VEC3"
        },
        {
            "bufferView" : 8,
            "componentType" : 5126,
            "count" : 4,
            "type" : "VEC3"
        },
        {
            "bufferView" : 9,
            "componentType" : 5126,
            "count" : 4,
            "type" : "VEC2"
        },
        {
            "bufferView" : 10,
            "componentType" : 5126,
            "count" : 4,
            "max" : [
                0.75,
                0,
                0.75
            ],
            "min" : [
                -0.75,
                0,
                -0.75
            ],
            "type" : "VEC3"
        },
        {
            "bufferView" : 11,
            "componentType" : 5126,
            "count" : 4,
            "type" : "VEC3"
        },
        {
            "bufferView" : 12,
            "componentType" : 5126,
            "count" : 4,
            "type" : "VEC2"
        },
        {
            "bufferView" : 13,
            "componentType" : 5126,
            "count" : 4,
            "max" : [
                0.75,
                0,
                0.75
            ],
            "min" : [
                -0.75,
                0,
                -0.75
            ],
            "type" : "VEC3"
        },
        {
            "bufferView" : 14,
            "componentType" : 5126,
            "count" : 4,
            "type" : "VEC3"
        },
        {
            "bufferView" : 15,
            "componentType" : 5126,
            "count" : 4,
            "type" : "VEC2"
        }
    ],
    "bufferViews" : [
        {
            "buffer" : 0,
            "byteLength" : 48,
            "byteOffset" : 0
        },
        {
            "buffer" : 0,
            "byteLength" : 48,
            "byteOffset" : 48
        },
        {
            "buffer" : 0,
            "byteLength" : 32,
            "byteOffset" : 96
        },
        {
            "buffer" : 0,
            "byteLength" : 12,
            "byteOffset" : 128
        },
        {
            "buffer" : 0,
            "byteLength" : 48,
            "byteOffset" : 140
        },
        {
            "buffer" : 0,
            "byteLength" : 48,
            "byteOffset" : 188
        },
        {
            "buffer" : 0,
            "byteLength" : 32,
            "byteOffset" : 236
        },
        {
            "buffer" : 0,
            "byteLength" : 48,
            "byteOffset" : 268
        },
        {
            "buffer" : 0,
            "byteLength" : 48,
            "byteOffset" : 316
        },
        {
            "buffer" : 0,
            "byteLength" : 32,
            "byteOffset" : 364
        },
        {
            "buffer" : 0,
            "byteLength" : 48,
            "byteOffset" : 396
        },
        {
            "buffer" : 0,
            "byteLength" : 48,
            "byteOffset" : 444
        },
        {
            "buffer" : 0,
            "byteLength" : 32,
            "byteOffset" : 492
        },
        {
            "buffer" : 0,
            "byteLength" : 48,
            "byteOffset" : 524
        },
        {
            "buffer" : 0,
            "byteLength" : 48,
            "byteOffset" : 572
        },
        {
            "buffer" : 0,
            "byteLength" : 32,
            "byteOffset" : 620
        }
    ],
    "buffers" : [
        {
            "byteLength" : 652,
            "uri" : "data:application/octet-stream;base64,"
        }
    ]
}
